<mxfile host="app.diagrams.net" agent="Mozilla/5.0 (Windows NT 10.0; Win64; x64; rv:138.0) Gecko/20100101 Firefox/138.0" version="26.2.14">
  <diagram name="Page-1" id="PpQoAjUUnzEoEYGxpqHz">
    <mxGraphModel dx="786" dy="420" grid="0" gridSize="10" guides="1" tooltips="1" connect="1" arrows="1" fold="1" page="1" pageScale="1" pageWidth="850" pageHeight="1100" background="none" math="0" shadow="0">
      <root>
        <mxCell id="0" />
        <mxCell id="1" parent="0" />
        <mxCell id="WMWsrnXyyZjLhGzbmKrh-3" value="" style="edgeStyle=orthogonalEdgeStyle;rounded=0;orthogonalLoop=1;jettySize=auto;html=1;" edge="1" parent="1" source="WMWsrnXyyZjLhGzbmKrh-1" target="WMWsrnXyyZjLhGzbmKrh-2">
          <mxGeometry relative="1" as="geometry" />
        </mxCell>
        <mxCell id="WMWsrnXyyZjLhGzbmKrh-1" value="Welcome to the rollercoaster" style="rounded=0;whiteSpace=wrap;html=1;" vertex="1" parent="1">
          <mxGeometry x="365" y="90" width="120" height="60" as="geometry" />
        </mxCell>
        <mxCell id="WMWsrnXyyZjLhGzbmKrh-5" value="" style="edgeStyle=orthogonalEdgeStyle;rounded=0;orthogonalLoop=1;jettySize=auto;html=1;" edge="1" parent="1" source="WMWsrnXyyZjLhGzbmKrh-2">
          <mxGeometry relative="1" as="geometry">
            <mxPoint x="220.5" y="340" as="targetPoint" />
          </mxGeometry>
        </mxCell>
        <mxCell id="WMWsrnXyyZjLhGzbmKrh-13" value="&amp;gt;=120" style="edgeLabel;html=1;align=center;verticalAlign=middle;resizable=0;points=[];fontSize=17;" vertex="1" connectable="0" parent="WMWsrnXyyZjLhGzbmKrh-5">
          <mxGeometry x="-0.2552" y="4" relative="1" as="geometry">
            <mxPoint y="-5" as="offset" />
          </mxGeometry>
        </mxCell>
        <mxCell id="WMWsrnXyyZjLhGzbmKrh-7" value="" style="edgeStyle=orthogonalEdgeStyle;rounded=0;orthogonalLoop=1;jettySize=auto;html=1;" edge="1" parent="1" source="WMWsrnXyyZjLhGzbmKrh-2" target="WMWsrnXyyZjLhGzbmKrh-6">
          <mxGeometry relative="1" as="geometry" />
        </mxCell>
        <mxCell id="WMWsrnXyyZjLhGzbmKrh-14" value="&amp;lt;120" style="edgeLabel;html=1;align=center;verticalAlign=middle;resizable=0;points=[];fontSize=16;" vertex="1" connectable="0" parent="WMWsrnXyyZjLhGzbmKrh-7">
          <mxGeometry x="-0.2964" y="1" relative="1" as="geometry">
            <mxPoint as="offset" />
          </mxGeometry>
        </mxCell>
        <mxCell id="WMWsrnXyyZjLhGzbmKrh-2" value="Height =&lt;div align=&quot;center&quot;&gt;&lt;font&gt;what is your height in cm?&lt;/font&gt;&lt;/div&gt;" style="rhombus;whiteSpace=wrap;html=1;rounded=0;align=center;" vertex="1" parent="1">
          <mxGeometry x="363" y="220" width="125" height="90" as="geometry" />
        </mxCell>
        <mxCell id="WMWsrnXyyZjLhGzbmKrh-6" value="&lt;div&gt;Sorry, you have to grow taller before you can ride.&lt;/div&gt;" style="rounded=0;whiteSpace=wrap;html=1;" vertex="1" parent="1">
          <mxGeometry x="570.5" y="330" width="120" height="60" as="geometry" />
        </mxCell>
        <mxCell id="WMWsrnXyyZjLhGzbmKrh-9" value="You can ride the rollercoaster" style="whiteSpace=wrap;html=1;rounded=0;" vertex="1" parent="1">
          <mxGeometry x="160" y="339" width="120" height="60" as="geometry" />
        </mxCell>
      </root>
    </mxGraphModel>
  </diagram>
</mxfile>
